<svg width="48.00000000000001" height="48.00000000000001" xmlns="http://www.w3.org/2000/svg">
 <g color="black">
  <path id="history_svg" fill="currentcolor" d="m17.94253,36.09253q-7.45,0 -12.65,-5.275t-5.2,-12.775l3,0q0,6.25 4.3,10.65t10.55,4.4q6.35,0 10.75,-4.45t4.4,-10.8q0,-6.2 -4.45,-10.475q-4.45,-4.275 -10.7,-4.275q-3.4,0 -6.375,1.55t-5.175,4.1l5.25,0l0,3l-10.45,0l0,-10.4l3,0l0,5.3q2.6,-3.05 6.175,-4.8q3.575,-1.75 7.575,-1.75q3.75,0 7.05,1.4t5.775,3.825q2.475,2.425 3.9,5.675q1.425,3.25 1.425,7t-1.425,7.05q-1.425,3.3 -3.9,5.75q-2.475,2.45 -5.775,3.875q-3.3,1.425 -7.05,1.425zm6.4,-9.85l-7.7,-7.6l0,-10.7l3,0l0,9.45l6.85,6.7l-2.15,2.15z"/>
  <rect id="handle_svg" fill="currentcolor" transform="rotate(45, 37.7722, 37.516)" height="3.04829" width="24.85084" y="35.99187" x="25.34682"/>
 </g>
</svg>
